<svg id="visual" viewBox="0 0 900 600" width="900" height="600" xmlns="http://www.w3.org/2000/svg" xmlns:xlink="http://www.w3.org/1999/xlink" version="1.1"><rect x="0" y="0" width="900" height="600" fill="#000000"></rect><path d="M0 508L9.3 506.7C18.7 505.3 37.3 502.7 56.2 495.2C75 487.7 94 475.3 112.8 476C131.7 476.7 150.3 490.3 169 496.2C187.7 502 206.3 500 225 494.8C243.7 489.7 262.3 481.3 281.2 483.3C300 485.3 319 497.7 337.8 505C356.7 512.3 375.3 514.7 394 515.7C412.7 516.7 431.3 516.3 450 507.7C468.7 499 487.3 482 506.2 481C525 480 544 495 562.8 498.7C581.7 502.3 600.3 494.7 619 492.7C637.7 490.7 656.3 494.3 675 492.3C693.7 490.3 712.3 482.7 731.2 482.2C750 481.7 769 488.3 787.8 491.7C806.7 495 825.3 495 844 490.8C862.7 486.7 881.3 478.3 890.7 474.2L900 470L900 601L890.7 601C881.3 601 862.7 601 844 601C825.3 601 806.7 601 787.8 601C769 601 750 601 731.2 601C712.3 601 693.7 601 675 601C656.3 601 637.7 601 619 601C600.3 601 581.7 601 562.8 601C544 601 525 601 506.2 601C487.3 601 468.7 601 450 601C431.3 601 412.7 601 394 601C375.3 601 356.7 601 337.8 601C319 601 300 601 281.2 601C262.3 601 243.7 601 225 601C206.3 601 187.7 601 169 601C150.3 601 131.7 601 112.8 601C94 601 75 601 56.2 601C37.3 601 18.7 601 9.3 601L0 601Z" fill="#ecea92"></path><path d="M0 493L9.3 498C18.7 503 37.3 513 56.2 520.7C75 528.3 94 533.7 112.8 534.2C131.7 534.7 150.3 530.3 169 521.7C187.7 513 206.3 500 225 496.7C243.7 493.3 262.3 499.7 281.2 498.5C300 497.3 319 488.7 337.8 491.5C356.7 494.3 375.3 508.7 394 512.5C412.7 516.3 431.3 509.7 450 509.8C468.7 510 487.3 517 506.2 515C525 513 544 502 562.8 499.3C581.7 496.7 600.3 502.3 619 501.2C637.7 500 656.3 492 675 497.5C693.7 503 712.3 522 731.2 524.3C750 526.7 769 512.3 787.8 509C806.7 505.7 825.3 513.3 844 515.7C862.7 518 881.3 515 890.7 513.5L900 512L900 601L890.7 601C881.3 601 862.7 601 844 601C825.3 601 806.7 601 787.8 601C769 601 750 601 731.2 601C712.3 601 693.7 601 675 601C656.3 601 637.7 601 619 601C600.3 601 581.7 601 562.8 601C544 601 525 601 506.2 601C487.3 601 468.7 601 450 601C431.3 601 412.7 601 394 601C375.3 601 356.7 601 337.8 601C319 601 300 601 281.2 601C262.3 601 243.7 601 225 601C206.3 601 187.7 601 169 601C150.3 601 131.7 601 112.8 601C94 601 75 601 56.2 601C37.3 601 18.7 601 9.3 601L0 601Z" fill="#e5cc6e"></path><path d="M0 549L9.3 543.8C18.7 538.7 37.3 528.3 56.2 528.8C75 529.3 94 540.7 112.8 546.7C131.7 552.7 150.3 553.3 169 550.8C187.7 548.3 206.3 542.7 225 541.3C243.7 540 262.3 543 281.2 540.3C300 537.7 319 529.3 337.8 523.5C356.7 517.7 375.3 514.3 394 517.8C412.7 521.3 431.3 531.7 450 531C468.7 530.3 487.3 518.7 506.2 516.8C525 515 544 523 562.8 531C581.7 539 600.3 547 619 545.5C637.7 544 656.3 533 675 528.7C693.7 524.3 712.3 526.7 731.2 531.5C750 536.3 769 543.7 787.8 542.2C806.7 540.7 825.3 530.3 844 527.8C862.7 525.3 881.3 530.7 890.7 533.3L900 536L900 601L890.7 601C881.3 601 862.7 601 844 601C825.3 601 806.7 601 787.8 601C769 601 750 601 731.2 601C712.3 601 693.7 601 675 601C656.3 601 637.7 601 619 601C600.3 601 581.7 601 562.8 601C544 601 525 601 506.2 601C487.3 601 468.7 601 450 601C431.3 601 412.7 601 394 601C375.3 601 356.7 601 337.8 601C319 601 300 601 281.2 601C262.3 601 243.7 601 225 601C206.3 601 187.7 601 169 601C150.3 601 131.7 601 112.8 601C94 601 75 601 56.2 601C37.3 601 18.7 601 9.3 601L0 601Z" fill="#deae4e"></path><path d="M0 532L9.3 535.5C18.7 539 37.3 546 56.2 550.3C75 554.7 94 556.3 112.8 559C131.7 561.7 150.3 565.3 169 563.8C187.7 562.3 206.3 555.7 225 551.7C243.7 547.7 262.3 546.3 281.2 547.2C300 548 319 551 337.8 550.7C356.7 550.3 375.3 546.7 394 545.8C412.7 545 431.3 547 450 546.5C468.7 546 487.3 543 506.2 544.5C525 546 544 552 562.8 553.8C581.7 555.7 600.3 553.3 619 550.3C637.7 547.3 656.3 543.7 675 543.7C693.7 543.7 712.3 547.3 731.2 550.2C750 553 769 555 787.8 554.2C806.7 553.3 825.3 549.7 844 551.3C862.7 553 881.3 560 890.7 563.5L900 567L900 601L890.7 601C881.3 601 862.7 601 844 601C825.3 601 806.7 601 787.8 601C769 601 750 601 731.2 601C712.3 601 693.7 601 675 601C656.3 601 637.7 601 619 601C600.3 601 581.7 601 562.8 601C544 601 525 601 506.2 601C487.3 601 468.7 601 450 601C431.3 601 412.7 601 394 601C375.3 601 356.7 601 337.8 601C319 601 300 601 281.2 601C262.3 601 243.7 601 225 601C206.3 601 187.7 601 169 601C150.3 601 131.7 601 112.8 601C94 601 75 601 56.2 601C37.3 601 18.7 601 9.3 601L0 601Z" fill="#d78f34"></path><path d="M0 575L9.3 575.5C18.7 576 37.3 577 56.2 575.8C75 574.7 94 571.3 112.8 569.5C131.7 567.7 150.3 567.3 169 569.8C187.7 572.3 206.3 577.7 225 575.5C243.7 573.3 262.3 563.7 281.2 563.5C300 563.3 319 572.7 337.8 577.7C356.7 582.7 375.3 583.3 394 580C412.7 576.7 431.3 569.3 450 566.8C468.7 564.3 487.3 566.7 506.2 565.8C525 565 544 561 562.8 561.3C581.7 561.7 600.3 566.3 619 566.3C637.7 566.3 656.3 561.7 675 559.8C693.7 558 712.3 559 731.2 559.7C750 560.3 769 560.7 787.8 561C806.7 561.3 825.3 561.7 844 561.2C862.7 560.7 881.3 559.3 890.7 558.7L900 558L900 601L890.7 601C881.3 601 862.7 601 844 601C825.3 601 806.7 601 787.8 601C769 601 750 601 731.2 601C712.3 601 693.7 601 675 601C656.3 601 637.7 601 619 601C600.3 601 581.7 601 562.8 601C544 601 525 601 506.2 601C487.3 601 468.7 601 450 601C431.3 601 412.7 601 394 601C375.3 601 356.7 601 337.8 601C319 601 300 601 281.2 601C262.3 601 243.7 601 225 601C206.3 601 187.7 601 169 601C150.3 601 131.7 601 112.8 601C94 601 75 601 56.2 601C37.3 601 18.7 601 9.3 601L0 601Z" fill="#cf6e20"></path></svg>