<svg id="visual" viewBox="0 0 900 600" width="900" height="600" xmlns="http://www.w3.org/2000/svg" xmlns:xlink="http://www.w3.org/1999/xlink" version="1.1"><rect x="0" y="0" width="900" height="600" fill="#fffbde"></rect><path d="M0 466L21.5 464.8C43 463.7 86 461.3 128.8 454.8C171.7 448.3 214.3 437.7 257.2 440.7C300 443.7 343 460.3 385.8 459.7C428.7 459 471.3 441 514.2 435.7C557 430.3 600 437.7 642.8 437C685.7 436.3 728.3 427.7 771.2 426.2C814 424.7 857 430.3 878.5 433.2L900 436L900 601L878.5 601C857 601 814 601 771.2 601C728.3 601 685.7 601 642.8 601C600 601 557 601 514.2 601C471.3 601 428.7 601 385.8 601C343 601 300 601 257.2 601C214.3 601 171.7 601 128.8 601C86 601 43 601 21.5 601L0 601Z" fill="#c76f24"></path><path d="M0 468L21.5 466.3C43 464.7 86 461.3 128.8 457C171.7 452.7 214.3 447.3 257.2 448.2C300 449 343 456 385.8 464C428.7 472 471.3 481 514.2 478.7C557 476.3 600 462.7 642.8 460.7C685.7 458.7 728.3 468.3 771.2 466.3C814 464.3 857 450.7 878.5 443.8L900 437L900 601L878.5 601C857 601 814 601 771.2 601C728.3 601 685.7 601 642.8 601C600 601 557 601 514.2 601C471.3 601 428.7 601 385.8 601C343 601 300 601 257.2 601C214.3 601 171.7 601 128.8 601C86 601 43 601 21.5 601L0 601Z" fill="#d88e2e"></path><path d="M0 480L21.5 485.3C43 490.7 86 501.3 128.8 501.2C171.7 501 214.3 490 257.2 483.8C300 477.7 343 476.3 385.8 481.8C428.7 487.3 471.3 499.7 514.2 503.5C557 507.3 600 502.7 642.8 496.2C685.7 489.7 728.3 481.3 771.2 479.2C814 477 857 481 878.5 483L900 485L900 601L878.5 601C857 601 814 601 771.2 601C728.3 601 685.7 601 642.8 601C600 601 557 601 514.2 601C471.3 601 428.7 601 385.8 601C343 601 300 601 257.2 601C214.3 601 171.7 601 128.8 601C86 601 43 601 21.5 601L0 601Z" fill="#e6ad3d"></path><path d="M0 536L21.5 535C43 534 86 532 128.8 528.3C171.7 524.7 214.3 519.3 257.2 520.5C300 521.7 343 529.3 385.8 532.2C428.7 535 471.3 533 514.2 527.7C557 522.3 600 513.7 642.8 515.5C685.7 517.3 728.3 529.7 771.2 535.2C814 540.7 857 539.3 878.5 538.7L900 538L900 601L878.5 601C857 601 814 601 771.2 601C728.3 601 685.7 601 642.8 601C600 601 557 601 514.2 601C471.3 601 428.7 601 385.8 601C343 601 300 601 257.2 601C214.3 601 171.7 601 128.8 601C86 601 43 601 21.5 601L0 601Z" fill="#f1cd51"></path><path d="M0 561L21.5 560.3C43 559.7 86 558.3 128.8 557C171.7 555.7 214.3 554.3 257.2 554.8C300 555.3 343 557.7 385.8 556.5C428.7 555.3 471.3 550.7 514.2 549C557 547.3 600 548.7 642.8 553.7C685.7 558.7 728.3 567.3 771.2 565.5C814 563.7 857 551.3 878.5 545.2L900 539L900 601L878.5 601C857 601 814 601 771.2 601C728.3 601 685.7 601 642.8 601C600 601 557 601 514.2 601C471.3 601 428.7 601 385.8 601C343 601 300 601 257.2 601C214.3 601 171.7 601 128.8 601C86 601 43 601 21.5 601L0 601Z" fill="#faee69"></path></svg>