<?xml version="1.0" encoding="UTF-8"?>
<svg xmlns="http://www.w3.org/2000/svg" xmlns:xlink="http://www.w3.org/1999/xlink" width="25px" height="25px" viewBox="0 0 25 25" version="1.1">
<g id="surface1">
<path style=" stroke:none;fill-rule:nonzero;fill:rgb(0%,0%,0%);fill-opacity:1;" d="M 3.050781 3.738281 C 2.683594 3.738281 2.335938 3.800781 2.007812 3.921875 C 1.417969 4.128906 0.929688 4.503906 0.546875 5.042969 C 0.183594 5.5625 0 6.144531 0 6.789062 L 0 18.207031 C 0 19.042969 0.296875 19.765625 0.886719 20.371094 C 1.496094 20.964844 2.214844 21.257812 3.050781 21.257812 C 3.902344 21.257812 4.625 20.964844 5.214844 20.371094 C 5.824219 19.765625 6.125 19.042969 6.125 18.207031 L 6.125 16.132812 C 6.132812 15.683594 6.597656 15.800781 6.832031 16.132812 C 7.269531 16.890625 8.199219 17.542969 9.28125 17.539062 C 10.363281 17.535156 11.261719 17 11.730469 16.132812 C 11.910156 15.921875 12.410156 15.566406 12.460938 16.132812 L 12.460938 18.207031 C 12.460938 19.042969 12.757812 19.765625 13.347656 20.371094 C 13.957031 20.964844 14.679688 21.257812 15.511719 21.257812 C 16.363281 21.257812 17.085938 20.964844 17.675781 20.371094 C 18.285156 19.765625 18.589844 19.042969 18.589844 18.207031 L 18.589844 6.789062 C 18.589844 6.144531 18.398438 5.5625 18.015625 5.042969 C 17.652344 4.503906 17.171875 4.128906 16.582031 3.921875 C 16.234375 3.800781 15.886719 3.738281 15.539062 3.738281 C 14.601562 3.738281 13.808594 4.105469 13.167969 4.832031 L 10.070312 8.457031 C 10 8.507812 9.769531 8.90625 9.28125 8.90625 C 8.792969 8.90625 8.589844 8.507812 8.519531 8.457031 L 5.398438 4.832031 C 4.769531 4.105469 3.988281 3.738281 3.050781 3.738281 Z M 22.339844 3.738281 C 21.609375 3.738281 20.984375 4 20.464844 4.519531 C 19.960938 5.023438 19.707031 5.640625 19.707031 6.371094 C 19.707031 7.101562 19.960938 7.726562 20.464844 8.25 C 20.984375 8.753906 21.609375 9.003906 22.339844 9.003906 C 23.070312 9.003906 23.695312 8.753906 24.21875 8.25 C 24.738281 7.726562 25 7.101562 25 6.371094 C 25 5.640625 24.738281 5.023438 24.21875 4.519531 C 23.695312 4 23.070312 3.738281 22.339844 3.738281 Z M 22.367188 9.527344 C 21.636719 9.527344 21.011719 9.789062 20.488281 10.308594 C 19.96875 10.832031 19.707031 11.457031 19.707031 12.1875 L 19.707031 18.625 C 19.707031 19.355469 19.96875 19.980469 20.488281 20.503906 C 21.011719 21.007812 21.636719 21.257812 22.367188 21.257812 C 23.097656 21.257812 23.714844 21.007812 24.21875 20.503906 C 24.738281 19.980469 25 19.355469 25 18.625 L 25 12.1875 C 25 11.457031 24.738281 10.832031 24.21875 10.308594 C 23.714844 9.789062 23.097656 9.527344 22.367188 9.527344 Z M 22.367188 9.527344 "/>
</g>
</svg>
