<svg id="visual" viewBox="0 0 900 600" width="900" height="600" xmlns="http://www.w3.org/2000/svg" xmlns:xlink="http://www.w3.org/1999/xlink" version="1.1"><rect x="0" y="0" width="900" height="600" fill="#03497e"></rect><path d="M0 458L15 459.3C30 460.7 60 463.3 90 462.8C120 462.3 150 458.7 180 450.2C210 441.7 240 428.3 270 430.5C300 432.7 330 450.3 360 457C390 463.7 420 459.3 450 455.8C480 452.3 510 449.7 540 445.8C570 442 600 437 630 434C660 431 690 430 720 426.3C750 422.7 780 416.3 810 417C840 417.7 870 425.3 885 429.2L900 433L900 601L885 601C870 601 840 601 810 601C780 601 750 601 720 601C690 601 660 601 630 601C600 601 570 601 540 601C510 601 480 601 450 601C420 601 390 601 360 601C330 601 300 601 270 601C240 601 210 601 180 601C150 601 120 601 90 601C60 601 30 601 15 601L0 601Z" fill="#e3841c"></path><path d="M0 430L15 433.8C30 437.7 60 445.3 90 452.5C120 459.7 150 466.3 180 463.7C210 461 240 449 270 449.7C300 450.3 330 463.7 360 464C390 464.3 420 451.7 450 446.7C480 441.7 510 444.3 540 453C570 461.7 600 476.3 630 478.5C660 480.7 690 470.3 720 463.3C750 456.3 780 452.7 810 447.8C840 443 870 437 885 434L900 431L900 601L885 601C870 601 840 601 810 601C780 601 750 601 720 601C690 601 660 601 630 601C600 601 570 601 540 601C510 601 480 601 450 601C420 601 390 601 360 601C330 601 300 601 270 601C240 601 210 601 180 601C150 601 120 601 90 601C60 601 30 601 15 601L0 601Z" fill="#e89d2e"></path><path d="M0 513L15 505C30 497 60 481 90 481.7C120 482.3 150 499.7 180 502.7C210 505.7 240 494.3 270 493.7C300 493 330 503 360 500.8C390 498.7 420 484.3 450 476.5C480 468.7 510 467.3 540 472.7C570 478 600 490 630 495.3C660 500.7 690 499.3 720 496.2C750 493 780 488 810 487.7C840 487.3 870 491.7 885 493.8L900 496L900 601L885 601C870 601 840 601 810 601C780 601 750 601 720 601C690 601 660 601 630 601C600 601 570 601 540 601C510 601 480 601 450 601C420 601 390 601 360 601C330 601 300 601 270 601C240 601 210 601 180 601C150 601 120 601 90 601C60 601 30 601 15 601L0 601Z" fill="#edb443"></path><path d="M0 513L15 515.5C30 518 60 523 90 525.3C120 527.7 150 527.3 180 526C210 524.7 240 522.3 270 523.8C300 525.3 330 530.7 360 533C390 535.3 420 534.7 450 529.3C480 524 510 514 540 506.3C570 498.7 600 493.3 630 493C660 492.7 690 497.3 720 498.2C750 499 780 496 810 496C840 496 870 499 885 500.5L900 502L900 601L885 601C870 601 840 601 810 601C780 601 750 601 720 601C690 601 660 601 630 601C600 601 570 601 540 601C510 601 480 601 450 601C420 601 390 601 360 601C330 601 300 601 270 601C240 601 210 601 180 601C150 601 120 601 90 601C60 601 30 601 15 601L0 601Z" fill="#f1cb5a"></path><path d="M0 554L15 549.3C30 544.7 60 535.3 90 530C120 524.7 150 523.3 180 527.8C210 532.3 240 542.7 270 548.7C300 554.7 330 556.3 360 553.7C390 551 420 544 450 539.5C480 535 510 533 540 532.2C570 531.3 600 531.7 630 536.5C660 541.3 690 550.7 720 550.7C750 550.7 780 541.3 810 535C840 528.7 870 525.3 885 523.7L900 522L900 601L885 601C870 601 840 601 810 601C780 601 750 601 720 601C690 601 660 601 630 601C600 601 570 601 540 601C510 601 480 601 450 601C420 601 390 601 360 601C330 601 300 601 270 601C240 601 210 601 180 601C150 601 120 601 90 601C60 601 30 601 15 601L0 601Z" fill="#f5e273"></path><path d="M0 571L15 567.3C30 563.7 60 556.3 90 557.5C120 558.7 150 568.3 180 573C210 577.7 240 577.3 270 577.2C300 577 330 577 360 576C390 575 420 573 450 572C480 571 510 571 540 567.8C570 564.7 600 558.3 630 555.2C660 552 690 552 720 554.5C750 557 780 562 810 566.8C840 571.7 870 576.3 885 578.7L900 581L900 601L885 601C870 601 840 601 810 601C780 601 750 601 720 601C690 601 660 601 630 601C600 601 570 601 540 601C510 601 480 601 450 601C420 601 390 601 360 601C330 601 300 601 270 601C240 601 210 601 180 601C150 601 120 601 90 601C60 601 30 601 15 601L0 601Z" fill="#faf88f"></path></svg>