<svg id="visual" viewBox="0 0 900 600" width="900" height="600" xmlns="http://www.w3.org/2000/svg" xmlns:xlink="http://www.w3.org/1999/xlink" version="1.1"><rect x="0" y="0" width="900" height="600" fill="#001122"></rect><defs><linearGradient id="grad1_0" x1="33.3%" y1="100%" x2="100%" y2="0%"><stop offset="20%" stop-color="#c8e366" stop-opacity="1"></stop><stop offset="80%" stop-color="#c8e366" stop-opacity="1"></stop></linearGradient></defs><defs><linearGradient id="grad1_1" x1="33.3%" y1="100%" x2="100%" y2="0%"><stop offset="20%" stop-color="#c8e366" stop-opacity="1"></stop><stop offset="80%" stop-color="#46b376" stop-opacity="1"></stop></linearGradient></defs><defs><linearGradient id="grad1_2" x1="33.3%" y1="100%" x2="100%" y2="0%"><stop offset="20%" stop-color="#007b78" stop-opacity="1"></stop><stop offset="80%" stop-color="#46b376" stop-opacity="1"></stop></linearGradient></defs><defs><linearGradient id="grad1_3" x1="33.3%" y1="100%" x2="100%" y2="0%"><stop offset="20%" stop-color="#007b78" stop-opacity="1"></stop><stop offset="80%" stop-color="#004359" stop-opacity="1"></stop></linearGradient></defs><defs><linearGradient id="grad1_4" x1="33.3%" y1="100%" x2="100%" y2="0%"><stop offset="20%" stop-color="#001122" stop-opacity="1"></stop><stop offset="80%" stop-color="#004359" stop-opacity="1"></stop></linearGradient></defs><defs><linearGradient id="grad2_0" x1="0%" y1="100%" x2="66.7%" y2="0%"><stop offset="20%" stop-color="#c8e366" stop-opacity="1"></stop><stop offset="80%" stop-color="#c8e366" stop-opacity="1"></stop></linearGradient></defs><defs><linearGradient id="grad2_1" x1="0%" y1="100%" x2="66.7%" y2="0%"><stop offset="20%" stop-color="#46b376" stop-opacity="1"></stop><stop offset="80%" stop-color="#c8e366" stop-opacity="1"></stop></linearGradient></defs><defs><linearGradient id="grad2_2" x1="0%" y1="100%" x2="66.7%" y2="0%"><stop offset="20%" stop-color="#46b376" stop-opacity="1"></stop><stop offset="80%" stop-color="#007b78" stop-opacity="1"></stop></linearGradient></defs><defs><linearGradient id="grad2_3" x1="0%" y1="100%" x2="66.7%" y2="0%"><stop offset="20%" stop-color="#004359" stop-opacity="1"></stop><stop offset="80%" stop-color="#007b78" stop-opacity="1"></stop></linearGradient></defs><defs><linearGradient id="grad2_4" x1="0%" y1="100%" x2="66.7%" y2="0%"><stop offset="20%" stop-color="#004359" stop-opacity="1"></stop><stop offset="80%" stop-color="#001122" stop-opacity="1"></stop></linearGradient></defs><g transform="translate(900, 600)"><path d="M-297.5 0C-290.9 -21.3 -284.3 -42.5 -277.9 -63.4C-271.4 -84.3 -265.2 -104.8 -254.1 -122.4C-242.9 -139.9 -226.8 -154.6 -210.3 -167.7C-193.8 -180.8 -176.9 -192.4 -159.6 -200.1C-142.4 -207.9 -124.8 -211.7 -110.2 -228.8C-95.6 -246 -84.1 -276.4 -66.2 -290C-48.3 -303.6 -24.2 -300.6 0 -297.5L0 0Z" fill="#00293f"></path><path d="M-238 0C-232.7 -17 -227.4 -34 -222.3 -50.7C-217.2 -67.4 -212.2 -83.8 -203.3 -97.9C-194.3 -111.9 -181.5 -123.7 -168.3 -134.2C-155 -144.7 -141.5 -153.9 -127.7 -160.1C-113.9 -166.3 -99.8 -169.4 -88.2 -183.1C-76.5 -196.8 -67.2 -221.1 -53 -232C-38.7 -242.9 -19.3 -240.4 0 -238L0 0Z" fill="#005f6d"></path><path d="M-178.5 0C-174.5 -12.8 -170.6 -25.5 -166.7 -38.1C-162.9 -50.6 -159.1 -62.9 -152.4 -73.4C-145.8 -84 -136.1 -92.8 -126.2 -100.6C-116.3 -108.5 -106.1 -115.5 -95.8 -120.1C-85.4 -124.7 -74.9 -127 -66.1 -137.3C-57.4 -147.6 -50.4 -165.8 -39.7 -174C-29 -182.2 -14.5 -180.3 0 -178.5L0 0Z" fill="#00987b"></path><path d="M-119 0C-116.3 -8.5 -113.7 -17 -111.1 -25.4C-108.6 -33.7 -106.1 -41.9 -101.6 -48.9C-97.2 -56 -90.7 -61.8 -84.1 -67.1C-77.5 -72.3 -70.7 -77 -63.8 -80.1C-56.9 -83.1 -49.9 -84.7 -44.1 -91.5C-38.3 -98.4 -33.6 -110.5 -26.5 -116C-19.3 -121.5 -9.7 -120.2 0 -119L0 0Z" fill="#86cd6d"></path><path d="M-59.5 0C-58.2 -4.3 -56.9 -8.5 -55.6 -12.7C-54.3 -16.9 -53 -21 -50.8 -24.5C-48.6 -28 -45.4 -30.9 -42.1 -33.5C-38.8 -36.2 -35.4 -38.5 -31.9 -40C-28.5 -41.6 -25 -42.3 -22 -45.8C-19.1 -49.2 -16.8 -55.3 -13.2 -58C-9.7 -60.7 -4.8 -60.1 0 -59.5L0 0Z" fill="#c8e366"></path></g><g transform="translate(0, 0)"><path d="M297.5 0C278.4 19.1 259.4 38.2 251.5 57.4C243.7 76.6 247 96 247.8 119.3C248.6 142.6 246.9 169.8 232.6 185.5C218.2 201.1 191.2 205.1 170.2 213.4C149.2 221.8 134.4 234.5 117.1 243.3C99.9 252 80.4 256.8 60.5 265.2C40.6 273.6 20.3 285.5 0 297.5L0 0Z" fill="#00293f"></path><path d="M238 0C222.7 15.3 207.5 30.5 201.2 45.9C194.9 61.3 197.6 76.8 198.2 95.5C198.9 114.1 197.5 135.9 186 148.4C174.6 160.9 152.9 164.1 136.2 170.8C119.4 177.4 107.5 187.6 93.7 194.6C80 201.6 64.3 205.4 48.4 212.1C32.5 218.8 16.2 228.4 0 238L0 0Z" fill="#005f6d"></path><path d="M178.5 0C167.1 11.5 155.6 22.9 150.9 34.4C146.2 46 148.2 57.6 148.7 71.6C149.1 85.6 148.1 101.9 139.5 111.3C130.9 120.6 114.7 123 102.1 128.1C89.5 133.1 80.6 140.7 70.3 146C60 151.2 48.3 154.1 36.3 159.1C24.4 164.1 12.2 171.3 0 178.5L0 0Z" fill="#00987b"></path><path d="M119 0C111.4 7.6 103.8 15.3 100.6 23C97.5 30.7 98.8 38.4 99.1 47.7C99.4 57 98.8 67.9 93 74.2C87.3 80.4 76.5 82 68.1 85.4C59.7 88.7 53.7 93.8 46.9 97.3C40 100.8 32.2 102.7 24.2 106.1C16.2 109.4 8.1 114.2 0 119L0 0Z" fill="#86cd6d"></path><path d="M59.5 0C55.7 3.8 51.9 7.6 50.3 11.5C48.7 15.3 49.4 19.2 49.6 23.9C49.7 28.5 49.4 34 46.5 37.1C43.6 40.2 38.2 41 34 42.7C29.8 44.4 26.9 46.9 23.4 48.7C20 50.4 16.1 51.4 12.1 53C8.1 54.7 4.1 57.1 0 59.5L0 0Z" fill="#c8e366"></path></g></svg>