<svg id="visual" viewBox="0 0 900 600" width="900" height="600" xmlns="http://www.w3.org/2000/svg" xmlns:xlink="http://www.w3.org/1999/xlink" version="1.1"><rect x="0" y="0" width="900" height="600" fill="#001220"></rect><defs><linearGradient id="grad1_0" x1="33.3%" y1="0%" x2="100%" y2="100%"><stop offset="20%" stop-color="#001220" stop-opacity="1"></stop><stop offset="80%" stop-color="#001220" stop-opacity="1"></stop></linearGradient></defs><defs><linearGradient id="grad2_0" x1="0%" y1="0%" x2="66.7%" y2="100%"><stop offset="20%" stop-color="#001220" stop-opacity="1"></stop><stop offset="80%" stop-color="#001220" stop-opacity="1"></stop></linearGradient></defs><g transform="translate(900, 0)"><path d="M0 297.5C-20.3 275.2 -40.6 252.9 -67 250.2C-93.5 247.5 -126.2 264.4 -148.7 257.6C-171.2 250.8 -183.6 220.2 -193.7 193.7C-203.9 167.3 -211.9 145.1 -213.9 123.5C-216 101.9 -212.1 80.8 -225.1 60.3C-238 39.8 -267.7 19.9 -297.5 0L0 0Z" fill="#FBAE3C"></path></g><g transform="translate(0, 600)"><path d="M0 -297.5C16.9 -263.4 33.8 -229.4 61.3 -228.9C88.9 -228.4 127.1 -261.5 148.7 -257.6C170.4 -253.7 175.4 -212.8 183.8 -183.8C192.3 -154.9 204.2 -137.8 204.4 -118C204.6 -98.2 193.1 -75.5 206.7 -55.4C220.3 -35.3 258.9 -17.6 297.5 0L0 0Z" fill="#FBAE3C"></path></g></svg>